<?xml version="1.0" standalone="no"?>
<!DOCTYPE svg PUBLIC "-//W3C//DTD SVG 20010904//EN"
 "http://www.w3.org/TR/2001/REC-SVG-20010904/DTD/svg10.dtd">
<svg version="1.0" xmlns="http://www.w3.org/2000/svg"
 width="500.000000pt" height="86.000000pt" viewBox="0 0 500.000000 86.000000"
 preserveAspectRatio="xMidYMid meet">

<g transform="translate(0.000000,86.000000) scale(0.100000,-0.100000)"
fill="#000000" stroke="none">
<path d="M72 740 c-29 -12 -44 -52 -32 -84 11 -31 25 -39 64 -38 25 1 42 -10
87 -55 55 -53 56 -56 43 -82 -8 -14 -14 -38 -14 -53 0 -40 -59 -65 -111 -48
-44 15 -77 6 -91 -25 -16 -35 -3 -71 31 -85 38 -15 68 0 86 43 9 22 25 35 56
47 43 17 43 17 62 -6 28 -36 85 -49 129 -31 l36 15 77 -78 c62 -62 76 -82 71
-98 -7 -22 8 -61 28 -74 36 -25 96 11 96 57 0 36 -35 68 -71 63 -24 -4 -39 6
-105 73 l-76 77 13 35 c12 34 8 65 -17 123 -2 6 9 28 27 50 23 29 39 39 62 41
34 2 67 33 67 63 0 29 -34 63 -63 63 -44 0 -70 -31 -63 -74 5 -29 0 -43 -25
-77 -27 -37 -34 -41 -57 -35 -37 10 -81 6 -99 -8 -11 -10 -25 -2 -72 45 -42
41 -57 64 -54 77 9 32 -5 65 -32 77 -14 7 -27 12 -28 11 -1 0 -12 -4 -25 -9z
m58 -35 c26 -32 -13 -81 -47 -59 -35 22 -23 74 17 74 10 0 23 -7 30 -15z m414
-1 c21 -8 21 -60 0 -68 -30 -12 -54 3 -54 34 0 34 21 47 54 34z m-136 -210
c34 -39 30 -95 -10 -129 -26 -22 -39 -26 -67 -21 -89 14 -111 127 -33 171 36
20 81 11 110 -21z m-303 -169 c0 -27 -3 -30 -30 -30 -21 0 -31 5 -33 18 -6 33
6 49 35 45 24 -3 28 -8 28 -33z m554 -164 c14 -26 -8 -54 -39 -49 -25 3 -36
27 -26 54 8 20 53 17 65 -5z"/>
<path d="M938 675 c-3 -3 25 -106 62 -228 l68 -222 45 -3 46 -3 45 143 c86
277 94 303 89 311 -7 12 -70 8 -81 -5 -5 -7 -27 -78 -48 -158 -20 -80 -40
-148 -44 -153 -3 -4 -26 64 -49 150 -23 87 -48 161 -54 165 -14 9 -71 11 -79
3z"/>
<path d="M2072 671 c-8 -5 -12 -21 -10 -37 2 -22 9 -30 27 -32 29 -4 53 22 44
46 -11 30 -36 39 -61 23z"/>
<path d="M2222 672 c-9 -7 -12 -59 -10 -228 l3 -219 43 -3 42 -3 -2 228 -3
228 -30 3 c-16 1 -36 -2 -43 -6z"/>
<path d="M2387 673 c-4 -3 -7 -107 -7 -230 l0 -224 43 3 42 3 3 219 c2 169 -1
221 -10 228 -16 9 -62 11 -71 1z"/>
<path d="M3028 674 c-5 -4 -8 -108 -8 -231 l0 -223 45 0 45 0 0 95 0 95 34 0
c33 0 34 -2 77 -95 l43 -95 43 0 c52 0 52 1 -8 121 l-38 76 25 11 c55 26 79
111 49 176 -26 54 -65 69 -190 74 -60 2 -113 1 -117 -4z m210 -90 c26 -18 29
-60 5 -86 -12 -13 -31 -18 -75 -18 l-58 0 0 60 0 60 53 0 c31 0 61 -6 75 -16z"/>
<path d="M4168 598 c-2 -36 -7 -44 -25 -46 -19 -3 -23 -10 -23 -38 0 -30 3
-34 25 -34 l25 0 0 -108 c0 -131 8 -143 92 -146 l53 -1 3 38 c3 33 1 37 -20
37 -39 0 -48 18 -48 102 l0 78 35 0 c33 0 35 2 35 34 0 32 -3 35 -32 38 -31 3
-33 6 -36 46 -3 42 -3 42 -42 42 -39 0 -39 0 -42 -42z"/>
<path d="M1426 550 c-34 -11 -72 -44 -79 -70 -7 -25 68 -38 93 -15 20 18 71
20 88 3 7 -7 12 -20 12 -30 0 -14 -8 -18 -37 -18 -103 -1 -163 -38 -163 -101
0 -21 3 -45 6 -54 16 -41 127 -60 172 -29 20 14 22 14 22 0 0 -12 11 -16 45
-16 l45 0 0 129 c0 116 -2 131 -22 156 -38 48 -110 66 -182 45z m114 -209 c0
-54 -74 -82 -104 -39 -27 39 0 63 77 67 24 1 27 -3 27 -28z"/>
<path d="M1825 548 c-11 -6 -23 -16 -27 -22 -5 -7 -8 -4 -8 7 0 14 -9 17 -45
17 l-45 0 0 -166 0 -165 43 3 42 3 3 114 c1 64 8 121 14 128 17 21 65 16 82
-9 12 -17 16 -49 16 -131 l0 -108 43 3 42 3 0 130 c0 108 -4 135 -18 157 -29
42 -100 60 -142 36z"/>
<path d="M2593 541 c-38 -18 -63 -45 -63 -69 0 -6 18 -13 41 -17 30 -5 45 -3
58 9 25 23 78 21 91 -3 17 -33 11 -41 -31 -41 -57 0 -125 -19 -144 -40 -9 -10
-19 -37 -22 -59 -5 -35 -2 -44 25 -71 26 -25 38 -30 79 -30 28 0 58 6 69 15
25 19 34 19 34 -1 0 -12 9 -14 43 -12 l42 3 3 106 c4 140 -8 177 -68 207 -54
27 -101 28 -157 3z m132 -200 c0 -36 -47 -68 -82 -55 -61 21 -19 88 52 82 24
-3 30 -8 30 -27z"/>
<path d="M3515 553 c-66 -17 -105 -78 -105 -165 0 -103 60 -168 154 -168 81 0
127 39 146 124 30 137 -67 241 -195 209z m89 -92 c42 -46 23 -154 -29 -167
-43 -11 -75 27 -75 91 0 30 6 60 16 73 19 27 64 29 88 3z"/>
<path d="M4460 543 c-55 -28 -80 -75 -80 -147 0 -74 22 -122 69 -153 57 -39
160 -27 201 22 11 14 10 19 -8 38 -21 21 -23 21 -51 4 -16 -9 -40 -17 -53 -17
-32 0 -68 27 -68 51 0 18 8 19 105 19 102 0 105 1 105 23 0 45 -22 100 -54
134 -27 30 -41 36 -82 40 -34 3 -59 -1 -84 -14z m114 -85 c9 -12 16 -26 16
-30 0 -5 -27 -8 -60 -8 -62 0 -68 5 -50 41 15 28 74 26 94 -3z"/>
<path d="M4856 539 c-21 -17 -26 -18 -26 -5 0 12 -11 16 -45 16 l-45 0 0 -165
0 -165 45 0 45 0 0 104 c0 82 3 108 16 120 18 19 59 31 73 22 12 -8 26 57 17
79 -8 21 -49 19 -80 -6z"/>
<path d="M2052 388 l3 -163 43 -3 42 -3 0 165 0 166 -45 0 -45 0 2 -162z"/>
<path d="M3780 414 l0 -136 29 -29 c24 -23 38 -29 73 -29 24 0 53 7 65 15 19
13 22 13 27 0 3 -10 19 -15 46 -15 l40 0 0 165 0 165 -45 0 -45 0 0 -113 c0
-100 -2 -116 -20 -132 -26 -23 -68 -13 -80 21 -6 14 -10 70 -10 125 l0 99 -40
0 -40 0 0 -136z"/>
</g>
</svg>